REM DIRINDEX 1\2,1\3,1\4,1\5,1\6
REM DIRNAME folder01,folder02,folder03,folder04,folder05,folder06
TITLE ""
FILE "Disc6Track44.mp3" MP3
  TRACK 01 AUDIO
    TITLE "3:cjc030_11651"
    INDEX 01 00:00:00
  TRACK 02 AUDIO
    TITLE "0:"
    INDEX 01 00:01:13
  TRACK 03 AUDIO
    TITLE "4:cjc030_11652"
    INDEX 01 00:01:22
  TRACK 04 AUDIO
    TITLE "0:"
    INDEX 01 00:02:34
  TRACK 05 AUDIO
    TITLE "5:cjc030_11653"
    INDEX 01 00:02:43
  TRACK 06 AUDIO
    TITLE "0:"
    INDEX 01 00:03:61
  TRACK 07 AUDIO
    TITLE "6:cjc030_11654"
    INDEX 01 00:03:74
  TRACK 08 AUDIO
    TITLE "0:"
    INDEX 01 00:06:71
  TRACK 09 AUDIO
    TITLE "3:cjc030_11655"
    INDEX 01 00:07:41
  TRACK 10 AUDIO
    TITLE "0:"
    INDEX 01 00:08:62
  TRACK 11 AUDIO
    TITLE "4:cjc030_11656"
    INDEX 01 00:08:70
  TRACK 12 AUDIO
    TITLE "0:"
    INDEX 01 00:09:53
  TRACK 13 AUDIO
    TITLE "5:cjc030_11657"
    INDEX 01 00:09:61
  TRACK 14 AUDIO
    TITLE "0:"
    INDEX 01 00:11:11
  TRACK 15 AUDIO
    TITLE "3:cjc030_11658"
    INDEX 01 00:11:64
  TRACK 16 AUDIO
    TITLE "0:"
    INDEX 01 00:13:04
  TRACK 17 AUDIO
    TITLE "4:cjc030_11659"
    INDEX 01 00:13:16
  TRACK 18 AUDIO
    TITLE "0:"
    INDEX 01 00:14:19
  TRACK 19 AUDIO
    TITLE "5:cjc030_11660"
    INDEX 01 00:14:29
  TRACK 20 AUDIO
    TITLE "0:"
    INDEX 01 00:15:44
  TRACK 21 AUDIO
    TITLE "6:cjc030_11661"
    INDEX 01 00:15:54
  TRACK 22 AUDIO
    TITLE "0:"
    INDEX 01 00:18:13
  TRACK 23 AUDIO
    TITLE "3:cjc030_11662"
    INDEX 01 00:18:62
  TRACK 24 AUDIO
    TITLE "0:"
    INDEX 01 00:20:02
  TRACK 25 AUDIO
    TITLE "4:cjc030_11663"
    INDEX 01 00:20:14
  TRACK 26 AUDIO
    TITLE "0:"
    INDEX 01 00:21:23
  TRACK 27 AUDIO
    TITLE "5:cjc030_11664"
    INDEX 01 00:21:31
  TRACK 28 AUDIO
    TITLE "0:"
    INDEX 01 00:22:50
  TRACK 29 AUDIO
    TITLE "6:cjc030_11665"
    INDEX 01 00:22:62
  TRACK 30 AUDIO
    TITLE "0:"
    INDEX 01 00:26:66
  TRACK 31 AUDIO
    TITLE "3:cjc030_11666"
    INDEX 01 00:27:38
  TRACK 32 AUDIO
    TITLE "0:"
    INDEX 01 00:28:47
  TRACK 33 AUDIO
    TITLE "4:cjc030_11667"
    INDEX 01 00:28:59
  TRACK 34 AUDIO
    TITLE "0:"
    INDEX 01 00:29:42
  TRACK 35 AUDIO
    TITLE "5:cjc030_11668"
    INDEX 01 00:29:52
  TRACK 36 AUDIO
    TITLE "0:"
    INDEX 01 00:30:61
  TRACK 37 AUDIO
    TITLE "3:cjc030_11669"
    INDEX 01 00:31:45
  TRACK 38 AUDIO
    TITLE "0:"
    INDEX 01 00:32:66
  TRACK 39 AUDIO
    TITLE "4:cjc030_11670"
    INDEX 01 00:33:01
  TRACK 40 AUDIO
    TITLE "0:"
    INDEX 01 00:33:73
  TRACK 41 AUDIO
    TITLE "5:cjc030_11671"
    INDEX 01 00:34:08
  TRACK 42 AUDIO
    TITLE "0:"
    INDEX 01 00:35:31
  TRACK 43 AUDIO
    TITLE "6:cjc030_11672"
    INDEX 01 00:35:41
  TRACK 44 AUDIO
    TITLE "0:"
    INDEX 01 00:41:04
  TRACK 45 AUDIO
    TITLE "3:cjc030_11673"
    INDEX 01 00:41:51
  TRACK 46 AUDIO
    TITLE "0:"
    INDEX 01 00:42:57
  TRACK 47 AUDIO
    TITLE "4:cjc030_11674"
    INDEX 01 00:42:66
  TRACK 48 AUDIO
    TITLE "0:"
    INDEX 01 00:43:70
  TRACK 49 AUDIO
    TITLE "5:cjc030_11675"
    INDEX 01 00:44:01
  TRACK 50 AUDIO
    TITLE "0:"
    INDEX 01 00:45:10
  TRACK 51 AUDIO
    TITLE "3:cjc030_11676"
    INDEX 01 00:45:69
  TRACK 52 AUDIO
    TITLE "0:"
    INDEX 01 00:47:13
  TRACK 53 AUDIO
    TITLE "4:cjc030_11677"
    INDEX 01 00:47:25
  TRACK 54 AUDIO
    TITLE "0:"
    INDEX 01 00:49:63
  TRACK 55 AUDIO
    TITLE "5:cjc030_11678"
    INDEX 01 00:49:70
  TRACK 56 AUDIO
    TITLE "0:"
    INDEX 01 00:51:16
  TRACK 57 AUDIO
    TITLE "6:cjc030_11679"
    INDEX 01 00:51:28
  TRACK 58 AUDIO
    TITLE "0:"
    INDEX 01 00:55:44
  TRACK 59 AUDIO
    TITLE "3:cjc030_11680"
    INDEX 01 00:56:16
  TRACK 60 AUDIO
    TITLE "0:"
    INDEX 01 00:57:43
  TRACK 61 AUDIO
    TITLE "4:cjc030_11681"
    INDEX 01 00:57:52
  TRACK 62 AUDIO
    TITLE "0:"
    INDEX 01 00:58:56
  TRACK 63 AUDIO
    TITLE "5:cjc030_11682"
    INDEX 01 00:58:66
  TRACK 64 AUDIO
    TITLE "0:"
    INDEX 01 01:00:19
  TRACK 65 AUDIO
    TITLE "6:cjc030_11683"
    INDEX 01 01:00:33
  TRACK 66 AUDIO
    TITLE "0:"
    INDEX 01 01:06:28
  TRACK 67 AUDIO
    TITLE "3:cjc030_11684"
    INDEX 01 01:07:00
  TRACK 68 AUDIO
    TITLE "0:"
    INDEX 01 01:08:38
  TRACK 69 AUDIO
    TITLE "4:cjc030_11685"
    INDEX 01 01:08:46
  TRACK 70 AUDIO
    TITLE "0:"
    INDEX 01 01:09:38
  TRACK 71 AUDIO
    TITLE "5:cjc030_11686"
    INDEX 01 01:09:46
  TRACK 72 AUDIO
    TITLE "0:"
    INDEX 01 01:11:11
  TRACK 73 AUDIO
    TITLE "3:cjc030_11687"
    INDEX 01 01:11:68
  TRACK 74 AUDIO
    TITLE "0:"
    INDEX 01 01:13:02
  TRACK 75 AUDIO
    TITLE "4:cjc030_11688"
    INDEX 01 01:13:16
  TRACK 76 AUDIO
    TITLE "0:"
    INDEX 01 01:14:19
  TRACK 77 AUDIO
    TITLE "5:cjc030_11689"
    INDEX 01 01:14:29
  TRACK 78 AUDIO
    TITLE "0:"
    INDEX 01 01:15:40
  TRACK 79 AUDIO
    TITLE "6:cjc030_11690"
    INDEX 01 01:15:52
  TRACK 80 AUDIO
    TITLE "0:"
    INDEX 01 01:19:68
